<?xml version="1.0" standalone="no"?>
<!DOCTYPE svg PUBLIC "-//W3C//DTD SVG 1.1//EN" "http://www.w3.org/Graphics/SVG/1.1/DTD/svg11.dtd" >
<svg xmlns="http://www.w3.org/2000/svg">
<metadata>
Created by FontForge 20120731 at Mon Jul 25 22:42:05 2016
 By admin
</metadata>
<defs>
<font id="iconfont" horiz-adv-x="1024" >
  <font-face 
    font-family="iconfont"
    font-weight="500"
    font-stretch="normal"
    units-per-em="1024"
    panose-1="2 0 6 3 0 0 0 0 0 0"
    ascent="896"
    descent="-128"
    x-height="792"
    bbox="34 -31 956 792"
    underline-thickness="50"
    underline-position="-100"
    unicode-range="U+0078-E620"
  />
<missing-glyph horiz-adv-x="374" 
d="M34 0v682h272v-682h-272zM68 34h204v614h-204v-614z" />
    <glyph glyph-name=".notdef" horiz-adv-x="374" 
d="M34 0v682h272v-682h-272zM68 34h204v614h-204v-614z" />
    <glyph glyph-name=".null" horiz-adv-x="0" 
 />
    <glyph glyph-name="nonmarkingreturn" horiz-adv-x="341" 
 />
    <glyph glyph-name="x" unicode="x" horiz-adv-x="1001" 
d="M281 543q-27 -1 -53 -1h-83q-18 0 -36.5 -6t-32.5 -18.5t-23 -32t-9 -45.5v-76h912v41q0 16 -0.5 30t-0.5 18q0 13 -5 29t-17 29.5t-31.5 22.5t-49.5 9h-133v-97h-438v97zM955 310v-52q0 -23 0.5 -52t0.5 -58t-10.5 -47.5t-26 -30t-33 -16t-31.5 -4.5q-14 -1 -29.5 -0.5
t-29.5 0.5h-32l-45 128h-439l-44 -128h-29h-34q-20 0 -45 1q-25 0 -41 9.5t-25.5 23t-13.5 29.5t-4 30v167h911zM163 247q-12 0 -21 -8.5t-9 -21.5t9 -21.5t21 -8.5q13 0 22 8.5t9 21.5t-9 21.5t-22 8.5zM316 123q-8 -26 -14 -48q-5 -19 -10.5 -37t-7.5 -25t-3 -15t1 -14.5
t9.5 -10.5t21.5 -4h37h67h81h80h64h36q23 0 34 12t2 38q-5 13 -9.5 30.5t-9.5 34.5q-5 19 -11 39h-368zM336 498v228q0 11 2.5 23t10 21.5t20.5 15.5t34 6h188q31 0 51.5 -14.5t20.5 -52.5v-227h-327z" />
    <glyph glyph-name="uniE600" unicode="&#xe600;" 
d="M512 654q-64 0 -131 -28t-116.5 -67t-90 -80t-61.5 -67t-21 -28q2 -6 7 -15.5t23 -37.5t39 -53.5t57.5 -57t76.5 -53.5t97.5 -37.5t119.5 -15.5t119 15.5t97.5 37.5t77 53.5t57.5 57t39 53.5t23 37.5t7 15.5q-4 6 -11.5 15.5t-31.5 37.5t-50 53.5t-65.5 57t-78.5 53.5
t-87.5 37.5t-95.5 15.5zM512 222q-87 0 -148.5 47.5t-61.5 114.5t61.5 114.5t148.5 47.5t148.5 -47.5t61.5 -114.5t-61.5 -114.5t-148.5 -47.5zM512 492q-44 0 -74.5 -31.5t-30.5 -76.5t30.5 -76.5t74.5 -31.5t74.5 31.5t30.5 76.5t-30.5 76.5t-74.5 31.5zM512 492z" />
    <glyph glyph-name="uniE601" unicode="&#xe601;" 
d="M44 849zM703 414q-14 3 -18 8.5t-1 9.5l2 5q1 1 2 2.5t3.5 7.5t4 12t2.5 14.5t-0.5 16.5t-5.5 17t-11 16q-13 13 -33.5 16.5t-41 0.5t-38.5 -8t-30 -10l-12 -5q-9 -3 -15 -4t-9 0.5t-5 3t-1.5 6.5t1 8.5t2.5 11t3 12.5q0 11 -1.5 20.5t-6 21.5t-13 19t-22 11.5t-34.5 3
t-47 -10.5q-32 -11 -64.5 -32.5t-56.5 -44.5t-44 -45t-31 -36l-10 -14q-30 -39 -44.5 -78.5t-14.5 -59.5v-19q6 -43 27.5 -77.5t51 -56t69.5 -36.5t76.5 -22t77.5 -9q68 -6 140 10t134.5 55t87.5 94q16 31 16.5 59.5t-10 46t-26 31.5t-29.5 20t-25 8zM425 131
q-98 -4 -166.5 38.5t-68.5 108.5q0 64 68 111t167 51.5t167.5 -33t68.5 -101.5q0 -66 -69.5 -118t-166.5 -57zM399 383q-26 -3 -47 -12.5t-33 -21.5t-20 -26t-11.5 -28t-4 -25t-0.5 -18v-7v-4q0 -2 2 -10.5t5 -15t10.5 -15t17.5 -13.5q60 -29 112 -18t84 52q12 16 16 38.5
t-1.5 46t-20.5 42.5t-43.5 29.5t-65.5 5.5zM366 211q-5 -1 -10 -0.5t-9 2t-8.5 3.5t-6.5 5l-6 6q-2 3 -3 7.5t-1 8.5q0 10 5.5 19.5t15 16.5t21.5 8q8 1 15.5 -0.5t13 -4.5t9.5 -7.5t6 -10t2 -11.5q0 -10 -6 -19t-16 -15.5t-22 -7.5zM444 277q-7 -5 -13.5 -4.5t-9.5 6.5
l-2 3q-1 2 -1 4v3q0 3 1 5l2 4q1 1 3 2l2 4q8 5 14.5 4.5t9.5 -7.5q3 -3 2.5 -7.5t-3 -9t-5.5 -7.5zM766 467q6 0 10.5 2.5t7 6.5t3.5 9q1 1 1 3q11 103 -73 118q-24 4 -45 1q-7 0 -11.5 -3.5t-7.5 -8.5t-3 -10q0 -9 6.5 -15.5t15.5 -6.5q71 17 76 -45q2 -16 -2 -29
q0 -10 6.5 -16t15.5 -6zM751 723q-40 9 -107 -4h-2l-1 -2l-1 -1q-10 -3 -16.5 -11.5t-6.5 -18.5q0 -14 9 -23t22 -9h3q1 0 4 1t6.5 1.5t8 1.5t7.5 2.5t12 1.5t22 -1.5t29 -6.5t32 -13.5t32 -23t28 -33.5q23 -54 9 -104q0 -1 -0.5 -1.5t-1.5 -4.5t-2 -7t-2 -8t-1 -9
q0 -8 5 -13.5t11.5 -7.5t15.5 -2q26 0 30 31q11 35 12.5 67.5t-4.5 57t-18 45.5t-27 36t-34.5 27.5t-37 20t-36.5 11.5z" />
    <glyph glyph-name="uniE602" unicode="&#xe602;" horiz-adv-x="1026" 
d="M189 46v85h647v-85h-647zM268 468h146v254h197v-254h146l-244 -244z" />
    <glyph glyph-name="uniE603" unicode="&#xe603;" 
d="M555 728v-73l23 -6q38 -10 72 -30l20 -13l53 53l63 -64l-53 -53l12 -20q19 -33 28 -71l5 -23h77v-90h-78l-7 -22q-9 -36 -29 -68l-12 -20l57 -57l-63 -64l-58 58l-20 -11q-31 -18 -67 -27l-23 -6v-83h-90v83l-22 6q-36 9 -67 27l-20 11l-58 -58l-63 64l57 57l-12 20
q-20 32 -29 68l-7 22h-79v90h78l5 23q9 38 28 71l12 20l-53 53l63 64l53 -53l20 13q34 20 72 30l22 6v73h90zM510.5 248q55.5 0 95 39.5t39.5 95.5t-39.5 95.5t-95 39.5t-95.5 -39.5t-40 -95.5t40 -95.5t95.5 -39.5zM585 758h-150v-80q-42 -11 -80 -34l-57 57l-106 -106
l58 -58q-21 -37 -31 -79h-84v-150h87q11 -40 32 -75l-62 -62l106 -106l63 63q35 -20 74 -30v-90h150v90q40 10 75 30l63 -63l106 106l-62 62q21 35 32 75h86v150h-83q-10 42 -31 79l58 58l-106 106l-57 -57q-38 23 -81 34v80zM510 278q-43 0 -73.5 30.5t-30.5 74t30.5 74.5
t74 31t74 -31t30.5 -74.5t-30.5 -74t-74.5 -30.5z" />
    <glyph glyph-name="uniE604" unicode="&#xe604;" 
d="M370 284q42 -58 76 -142h134q40 64 70 142l77 -26q-30 -65 -65 -116h189v-67h-678v67h197q-27 54 -71 116zM191 700h642v-68h-642v68zM247 561h530v-265h-530v265zM701 363v130h-377v-130h377z" />
    <glyph glyph-name="uniE605" unicode="&#xe605;" 
d="M274 271q2 3 6 8t17.5 20.5t28 30t37.5 34t46 34.5t52.5 29t59 21.5t64.5 7.5t68 -9v-138l216 161q13 14 12 22t-16 22l-209 180v-145q-6 1 -18 1.5t-46 -2.5t-66.5 -11t-74 -27.5t-74.5 -48.5t-61.5 -78t-41.5 -112zM680 180v-28q0 -11 -7.5 -18.5t-18.5 -7.5h-431
q-11 0 -18.5 7.5t-7.5 18.5v324q0 11 7.5 19t18.5 8h93q31 33 74 54h-161q-36 0 -61 -25t-25 -61v-313q0 -36 25 -61t61 -25h420q35 0 60 25t25 61v153l-54 -54v-77z" />
    <glyph glyph-name="uniE606" unicode="&#xe606;" 
d="M876.5 650.5q-11.5 2.5 -21 -3.5t-12.5 -17l-8 -34h-511l-15 69q-2 10 -9.5 16t-17.5 6h-128q-12 0 -20 -8t-8 -19.5t8 -19.5t20 -8h105l72 -338q2 -9 9.5 -15.5t17.5 -6.5h436q10 0 17.5 6t10.5 16l75 323q3 11 -3 21t-17.5 12.5zM511 456v84h135v-84h-135zM646 423v-95
h-135v95h135zM679 540h143l-20 -84h-123v84zM478 540v-84h-125l-17 84h142zM360 423h118v-95h-97zM772 328h-93v95h116zM442.5 205q-25.5 0 -44 -18t-18.5 -44t18.5 -44t44 -18t44 18t18.5 44t-18.5 44t-44 18zM709.5 205q-25.5 0 -43.5 -18t-18 -44t18 -44t43.5 -18t44 18
t18.5 44t-18.5 44t-44 18z" />
    <glyph glyph-name="uniE607" unicode="&#xe607;" 
d="M654 513q12 0 27 -2q-18 86 -99.5 143t-185.5 57q-118 0 -201 -70.5t-83 -171.5q0 -112 114 -191l-29 -86l99 50q72 -14 100 -14q12 0 26 1q-9 30 -9 59q0 94 70 159.5t171 65.5zM502 590q16 0 25.5 -9.5t9.5 -25.5t-9.5 -26t-25.5 -10q-17 0 -30 10t-13 25.5t13 25.5
t30 10zM304 519q-17 0 -30 10t-13 25.5t13 25.5t30 10q16 0 25.5 -9.5t9.5 -25.5t-9.5 -26t-25.5 -10zM912 292q0 84 -72 145t-168 61q-101 0 -171 -60.5t-70 -146t70 -145.5t171 -60q28 0 85 14l78 -43l-22 71q99 75 99 164zM594 327q-11 0 -19.5 9t-8.5 19.5t8.5 19.5
t19.5 9q15 0 25 -8.5t10 -20t-10 -20t-25 -8.5zM750 327q-11 0 -19.5 9t-8.5 19.5t8.5 19.5t19.5 9q15 0 25 -8.5t10 -20t-10 -20t-25 -8.5zM750 327z" />
    <glyph glyph-name="uniE608" unicode="&#xe608;" 
d="M876 672l-70 71q-12 11 -25.5 16.5t-24 6.5t-30 -3.5t-28.5 -7.5t-33 -12q-19 -11 -50 -30.5t-108 -78t-133 -114.5q-124 -124 -217 -282l-4 -7q-48 -93 0 -141l70 -70q16 -16 37 -16.5t34 16.5l106 141q28 42 0 70v0l-42 42q66 88 130 152q57 58 133 114l44 -43
q28 -29 70 0l141 106q15 14 15 35t-15 35zM627 604l57 -57q18 -18 45 0l90 68q11 10 10.5 22t-10.5 23l-45 44q-15 13 -36.5 12.5t-37.5 -8.5q-59 -31 -140 -92t-142 -120q-92 -84 -226 -294l-4 -6q-7 -12 -6.5 -38.5t9.5 -35.5l45 -45q30 -17 45 0l68 90q18 27 0 45l-56 55
q163 232 334 337z" />
    <glyph glyph-name="uniE609" unicode="&#xe609;" 
d="M174 354l351 -344q11 -11 27 -11t27 11t11 26.5t-11 26.5l-327 320l327 321q11 10 11 25.5t-11 26.5t-27 11t-27 -11l-351 -344q-11 -12 -10 -29q-1 -17 10 -29zM438 383q-1 -17 11 -29l351 -344q11 -11 26.5 -11t26.5 11t11 26.5t-11 26.5l-326 320l326 321
q11 10 11 25.5t-11 26.5t-26.5 11t-26.5 -11l-351 -344q-12 -12 -11 -29zM438 383z" />
    <glyph glyph-name="uniE60A" unicode="&#xe60a;" 
d="M940 401l-201 201q-11 12 -23 0l-23 -23q-11 -11 0 -22l142 -142h-739q-6 0 -11 -4.5t-5 -11.5v-32q0 -6 5 -11t11 -5h739l-141 -141q-11 -11 0 -23l23 -22q11 -12 22 0l200 200q7 7 3 17q7 11 -2 19z" />
    <glyph glyph-name="uniE60B" unicode="&#xe60b;" 
d="M850 414l-351 344q-11 11 -27 11t-27 -11t-11 -26.5t11 -26.5l327 -320l-327 -321q-11 -10 -11 -25.5t11 -26.5t27 -11t27 11l351 344q11 12 10 29q1 17 -10 29zM586 385q1 17 -11 29l-351 344q-11 11 -26.5 11t-26.5 -11t-11 -26.5t11 -26.5l326 -320l-326 -321
q-11 -10 -11 -25.5t11 -26.5t26.5 -11t26.5 11l351 344q12 12 11 29zM586 385z" />
    <glyph glyph-name="uniE60C" unicode="&#xe60c;" 
d="M681 242q39 47 57 103q14 45 14 95q0 131 -93 224t-224 93t-223.5 -93t-92.5 -224t92.5 -224t223.5 -93q113 0 198 71l201 -201q10 -10 24 -10t24 10q9 10 9 24t-10 24zM163 441q0 112 79.5 191t191 79t190.5 -79t79 -190.5t-79 -191t-190.5 -79.5t-191 79.5t-79.5 190.5
z" />
    <glyph glyph-name="uniE60D" unicode="&#xe60d;" horiz-adv-x="1000" 
d="M515 281l325 324l-26 26l-299 -299l-298 299l-26 -26zM814 327l-299 -299l-298 299l-26 -26l324 -325v1v-1l325 325z" />
    <glyph glyph-name="uniE60E" unicode="&#xe60e;" 
d="M855 165l-157 92q-14 7 -26 -4l-46 -46q-12 -12 -29 -12q-2 0 -6.5 0.5t-21 6t-34.5 16t-47 33t-59.5 53t-53 59.5t-33 48t-16 33.5t-6.5 21.5l-1 6q1 17 12 29l40 39q11 12 4 27l-86 162q-3 7 -8.5 8t-10.5 -4l-107 -107q-12 -12 -14 -28q-1 -4 -1 -10t2 -26.5
t7.5 -42.5t19.5 -56.5t34.5 -70t55.5 -80.5t80 -90q171 -171 328 -195q31 -5 48 -3q16 2 28 14l107 107q5 5 4 10.5t-7 9.5zM571 359h43q-7 56 -46 95q-40 40 -96 47v-43q37 -9 63.5 -35.5t35.5 -63.5zM801 359h52q-2 97 -55.5 184t-141 140t-184.5 55v-51q133 -7 227 -101
t102 -227zM682 359h52q-8 105 -82.5 179.5t-179.5 81.5v-52q83 -7 142.5 -66t67.5 -143z" />
    <glyph glyph-name="uniE60F" unicode="&#xe60f;" 
d="M509 660q-86 0 -147 -59.5t-61 -144t61 -144t147 -59.5t146.5 59.5t60.5 144t-60.5 144t-146.5 59.5v0zM269 378v188h-8q33 70 99.5 113t148 43t148.5 -43t99 -113h-8v-188q40 0 68 27.5t28 66.5q0 26 -13.5 48t-35.5 34q-31 88 -109.5 144t-177 56t-176.5 -56t-110 -144
q-22 -12 -35.5 -34t-13.5 -48q0 -39 28 -66.5t68 -27.5v0v0zM716 271q-88 -80 -207.5 -80t-206.5 79q-75 -37 -118 -102t-43 -152h737q0 87 -43 152t-119 103v0zM716 271z" />
    <glyph glyph-name="uniE610" unicode="&#xe610;" 
d="M512 143q-65 0 -132 21.5t-117 53t-90.5 66t-61.5 61.5t-21 39t21 39t61.5 61.5t90.5 66t117 53t132 21.5t132 -21.5t117 -53t90.5 -66t61.5 -61.5t21 -39q0 -11 -21.5 -38.5t-62.5 -61.5t-91.5 -65.5t-116.5 -53.5t-130 -22zM512 599q-62 0 -124.5 -19.5t-109 -48
t-84 -60t-57.5 -55t-22 -32.5q2 -10 22 -33.5t57.5 -54.5t84 -59.5t109 -48t124.5 -19.5q60 0 121.5 20t107.5 48.5t84 60t58.5 54.5t24.5 32q-3 11 -24 35t-59.5 55t-84.5 59t-107.5 47t-120.5 19zM512 599zM512 247q-57 0 -97 40t-40 97t40 97t97 40t97 -40t40 -97
t-40 -97t-97 -40zM512 495q-46 0 -79 -32.5t-33 -78.5t33 -78.5t79 -32.5t79 32.5t33 78.5t-33 78.5t-79 32.5zM512 495z" />
    <glyph glyph-name="uniE611" unicode="&#xe611;" 
d="M865 258l-226 -225q-23 -24 -56.5 -24t-57.5 24l-363 363q-27 26 -24 63l16 209q3 29 24.5 51t50.5 24l209 16q37 3 63 -24l364 -363q23 -23 23 -56.5t-23 -57.5zM201 697q-13 -13 -15 -31l-16 -209q-1 -23 14 -38l364 -364q14 -14 34.5 -14t34.5 14l225 226q14 14 14 34
t-14 35l-363 363q-16 16 -39 14l-209 -16q-18 -2 -30 -14zM382 515q-19 -18 -45.5 -18t-45 18.5t-18.5 45t18.5 45.5t45 19t45.5 -19t19 -45.5t-19 -45.5zM314 583.5q-9 -9.5 -9 -23t9 -22.5t22.5 -9t22.5 9q10 9 10 22.5t-9.5 23t-23 9.5t-22.5 -9.5z" />
    <glyph glyph-name="uniE612" unicode="&#xe612;" 
d="M694 439l-221 -159q10 -1 28.5 -3t76.5 -5.5t117 -2.5l-6 26l190 165q6 5 3.5 12t-9.5 8l-251 21l-98 233q-3 7 -10.5 7t-10.5 -7l-98 -233l-251 -21q-8 -1 -10.5 -8t3.5 -12l190 -165l-57 -246q-1 -7 5 -11.5t13 -0.5l215 130l216 -130q3 -2 6 -2q4 0 7 3q6 4 4 11
l-45 195q9 4 19 10.5t16 10.5l6 5q-4 -2 -11.5 -4.5t-38 -9t-71.5 -9t-110.5 -4.5t-156.5 6l220 159q-1 1 -10 3.5t-80.5 9t-193.5 10.5l28 6q172 29 322 11q28 -4 54 -9zM694 439z" />
    <glyph glyph-name="uniE613" unicode="&#xe613;" 
d="M738 304q-39 0 -72 -19.5t-52 -52.5l-187 98q5 20 5 36q0 25 -10 50l206 104q43 -53 110 -53q59 0 100.5 41.5t41.5 100.5t-41.5 101t-100.5 42t-101 -42t-42 -101q0 -27 11 -53l-204 -103q-44 58 -115 58q-59 0 -101.5 -42.5t-42.5 -102t42.5 -102t101.5 -42.5
q39 0 71.5 18.5t51.5 50.5l188 -98q-5 -19 -5 -34q0 -60 42.5 -102.5t102.5 -42.5t102.5 42.5t42.5 102.5t-42.5 102.5t-102.5 42.5zM738 715q44 0 75 -31t31 -75t-31 -75t-75 -31t-75 31t-31 75t31 75t75 31zM287 260q-44 0 -75 31t-31 75t31 75t75 31t75 -31t31 -74.5
t-31 -75t-75 -31.5zM738 53q-44 0 -75 31t-31 75t31 75t75 31t75 -31t31 -75t-31 -75t-75 -31z" />
    <glyph glyph-name="uniE614" unicode="&#xe614;" 
d="M662 792h-299q-29 0 -48.5 -20t-19.5 -48v-681q0 -28 19.5 -48t48.5 -20h299q28 0 48 20t20 48v681q0 28 -20 48t-48 20zM471 738h82q6 0 10 -4t4 -10t-4 -10t-10 -4h-82q-5 0 -9 4t-4 10t4 10t9 4zM512 3q-17 0 -29 11.5t-12 28.5t12 29t29 12t29 -12t12 -29t-12 -28.5
t-29 -11.5zM703 111h-381v545h381v-545z" />
    <glyph glyph-name="uniE615" unicode="&#xe615;" 
d="M383 768h-255v-255h255v255zM352 544h-193v193h193v-193zM192 192h127v-127h-127v127zM160 384h64v-63h-64v63zM479 768h64v-63h-64v63zM895 768h-256v-255h256v255zM863 544h-192v193h192v-193zM192 704h127v-127h-127v127zM703 704h128v-127h-128v127zM415 577h65v-64
h63v64h64v63h-128v64h-64v-71v-56zM704 257v64h-33v63v1h97v-64h63v64v64h-160h-64v-65h-64v65h-64v-65h-63v42h-1v23h-191v-64h128v-1v-27v-36h127v-64h1v-64h63v64h96v-64h-63v-128h63v64h65v64h63v64h-63zM831 128h64v-128h-64v128zM768 192h63v-63h-63v63zM831 321h64
v-128h-64v128zM128 1h255v255h-255v-255zM159 225h193v-193h-193v193zM480 64h63v-64h-63v64zM543 512h64v-63h-64v63zM415 193h64v-128h-64v128zM704 64h-65v-64h65h63v128h-63v-64z" />
    <glyph glyph-name="uniE616" unicode="&#xe616;" 
d="M864 134q-3 17 -18.5 31t-33 22t-31.5 19t-15 22q-1 35 8 213q2 51 -13.5 93.5t-43.5 72.5t-61 51t-72 35v2v1v1q0 29 -21 50t-51 21t-51 -21t-21 -50v-1v-1v-2q-39 -14 -72 -35t-61 -51t-43.5 -72.5t-13.5 -93.5q1 -20 2.5 -50.5t3.5 -88.5t2 -74q-1 -11 -15 -22
t-31.5 -19t-33 -22t-18.5 -31q-3 -14 10 -26.5t29 -12.5h226q-1 -7 -1 -12q0 -36 25.5 -62t62.5 -26t62.5 26t25.5 62q0 5 -1 12h226q16 0 29 12.5t10 26.5z" />
    <glyph glyph-name="uniE617" unicode="&#xe617;" 
d="M505 760l124 -250l275 -40l-199 -194l47 -274l-247 129l-246 -129l47 274l-199 194l275 40z" />
    <glyph glyph-name="uniE618" unicode="&#xe618;" 
d="M518.5 380q80.5 0 137 57t56.5 137t-56.5 137t-137 57t-137 -57t-56.5 -137t56.5 -137t137 -57zM773 263q-27 28 -40.5 39t-38 19t-65.5 11h-221q-41 -3 -66 -11t-38 -19t-40 -39q-91 -94 -69 -191q25 -62 127 -62h393q102 0 127 62q22 97 -69 191z" />
    <glyph glyph-name="uniE619" unicode="&#xe619;" 
d="M505 459v-66h19q38 0 38 33t-38 33h-19zM759 545v184q0 21 -14.5 35t-34.5 14h-394q-20 0 -34.5 -14t-14.5 -35v-184h-92v-308h92v-197q0 -20 14.5 -34.5t34.5 -14.5h394q20 0 34.5 14.5t14.5 34.5v197h91v308h-91zM710 717v-172h-394v172h394zM608 428q0 -31 -23 -50
t-58 -19h-22v-71h-44v205h71q76 0 76 -65zM292 335l-15 -47h-47l75 205h51l74 -205h-48l-15 47h-75zM513 16q-10 0 -17.5 7t-7.5 17t7.5 17.5t17.5 7.5t17.5 -7.5t7.5 -17.5t-7.5 -17t-17.5 -7zM710 89h-394v148h394v-148zM757 378q-23 -19 -58 -19h-22v-71h-44v205h71
q76 0 76 -65q0 -31 -23 -50zM696 459h-19v-66h19q38 0 38 33t-38 33zM330 458h-1q-1 -10 -4 -18l-23 -71h54l-23 71q-2 6 -3 18z" />
    <glyph glyph-name="uniE61A" unicode="&#xe61a;" 
d="M715 453h-341q-1 13 -0.5 36.5t-1 51t4.5 57t17 54t37 40.5t63 17q42 2 70.5 -16.5t39.5 -46t15 -55t3 -47.5l-1 -19h73q0 5 0.5 14t-1.5 35.5t-7.5 50.5t-20 53.5t-35 50.5t-56 35.5t-80.5 15.5q-43 -3 -77 -16.5t-53.5 -34.5t-34 -47.5t-19 -55t-8 -56t-1 -51t1.5 -41
t-1 -25.5h7q-36 0 -61.5 -25.5t-25.5 -61.5v-290q0 -36 25.5 -61.5t61.5 -25.5h406q36 0 61.5 25.5t25.5 61.5v290q0 36 -25.5 61.5t-61.5 25.5zM541 200v-66q0 -12 -8.5 -20.5t-20.5 -8.5t-20.5 8.5t-8.5 20.5v66q-29 17 -29 50q0 24 17 41t41 17t41 -17t17 -41
q0 -33 -29 -50z" />
    <glyph glyph-name="uniE61B" unicode="&#xe61b;" 
d="M808 671q-10 -1 -21 -1q-50 0 -95.5 8.5t-73 19t-50 23.5t-30 19t-9.5 8l-18 19l-18 -19q-2 -2 -9.5 -8t-30 -19t-50 -23.5t-73 -19t-95.5 -8.5q-11 0 -21 1h-25v-351q0 -32 5.5 -60t24.5 -65.5t51.5 -70t92 -68t139.5 -64.5l9 -4l9 4q80 29 139.5 64.5t92 68t51.5 70
t24.5 65.5t5.5 60v351h-25zM483 229l-161 145l43 35l86 -64q13 14 36 36t84.5 70.5t112.5 74.5l16 -19q-6 -4 -16 -13t-38.5 -38.5t-54.5 -60t-56.5 -76t-51.5 -90.5v0zM483 229z" />
    <glyph glyph-name="uniE61C" unicode="&#xe61c;" 
d="M861 737v-699h-698v699h698zM884 760h-744v-745h744v745zM292 146q-18 0 -32 14l-1 1q-15 17 -6 42q19 51 151 87q5 9 11 18q36 61 67 127q-14 28 -24 57q-24 69 -7 105q11 25 41 31h1q19 2 33 -16q15 -19 12 -59q-3 -45 -28 -115q45 -66 84 -112q8 1 15 2q113 8 149 -30
q11 -13 14 -29.5t-3 -37.5v-1l-1 -2q-12 -20 -42 -21h-1q-39 0 -90 43q-24 20 -51 50q-41 -5 -72 -12q-51 -9 -92 -20q-26 -41 -49 -68q-39 -47 -70 -53q-5 -1 -9 -1zM279 177q7 -7 17 -5q33 6 87 86q-32 -10 -55 -21q-43 -21 -51 -42q-4 -10 2 -18zM616 303q19 -20 36 -34
q43 -37 73 -37h1q13 1 20 8q7 26 -7 41q-26 28 -123 22zM498 410q-29 -59 -59 -111q31 7 68 14q25 5 57 10q-31 38 -66 87zM496 603q-16 -4 -22 -17q-16 -34 20 -117q33 100 12 128q-4 5 -10 6z" />
    <glyph glyph-name="uniE61D" unicode="&#xe61d;" 
d="M505 708h-7q-128 0 -219 -91t-91 -220v-13v-324h330v1h7q128 0 219.5 91t91.5 219v7v330h-331zM661 459q-31 0 -53 22t-22 53t22 53t53 22t53 -22t22 -53t-22 -53t-53 -22z" />
    <glyph glyph-name="uniE61E" unicode="&#xe61e;" 
d="M859 255v343q0 55 -39 94t-94 39h-428q-55 0 -94 -39t-39 -94v-428q0 -55 39 -94.5t94 -39.5h428q49 0 86 31.5t45 78.5q-191 83 -269 120q-48 -59 -100 -88.5t-120 -29.5q-72 0 -115.5 38.5t-37.5 93.5q2 21 10.5 40t27 38.5t55 28.5t86.5 5q16 -2 29.5 -3.5t27 -4.5
t22 -5t23 -6t21 -6t23.5 -8t24 -8q24 43 39 94h-270v27h133v48h-162v29h162v70q2 11 14 11h67v-81h173v-29h-173v-48h141q-19 -79 -57 -144l228 -73v0zM357 194q-36 0 -61 10t-35.5 25.5t-14.5 29.5t-1 26q4 23 28 42t63 19q89 0 193 -50q-78 -102 -172 -102z" />
    <glyph glyph-name="uniE61F" unicode="&#xe61f;" 
d="M834 254q-5 75 -77 156q3 7 4 20.5t-5 35t-21 37.5v2q0 100 -62.5 166t-153.5 66t-153.5 -66t-62.5 -166v-2q-16 -16 -22 -37.5t-4.5 -35t4.5 -20.5q-72 -81 -78 -156q-2 -39 11 -56q6 -6 15.5 -3.5t22.5 16.5t23 36q12 -44 50 -94q-24 -6 -39 -22.5t-16 -34.5t6 -33
q23 -36 88 -36q99 0 140 39q5 5 14.5 5t14.5 -5q41 -39 140 -39q66 0 88 36q7 15 6.5 33t-15.5 34.5t-40 22.5q38 50 50 94q11 -22 23.5 -36t22 -16.5t16.5 3.5q12 17 10 56z" />
    <glyph glyph-name="uniE620" unicode="&#xe620;" 
d="M370 416l-198 152v-349zM846 639h-672l336 -258zM604 381l-94 -72l-94 72l-243 -243h674zM650 416l198 -198v350z" />
  </font>
</defs>
</svg>
